<mxfile host="app.diagrams.net" modified="2022-04-19T02:07:06.684Z" agent="5.0 (Windows)" etag="iCPK5ZyWf1C-Qf3URS8N" version="17.4.5" type="github">
  <diagram id="jumqYtK21HVVnxhFovv-" name="第 1 页">
    <mxGraphModel dx="1065" dy="479" grid="0" gridSize="10" guides="1" tooltips="1" connect="1" arrows="1" fold="1" page="1" pageScale="1" pageWidth="1169" pageHeight="827" math="0" shadow="0">
      <root>
        <mxCell id="0" />
        <mxCell id="1" parent="0" />
        <mxCell id="8CNHfyw67QvqExkJ17C1-1" value="" style="rounded=0;whiteSpace=wrap;html=1;" vertex="1" parent="1">
          <mxGeometry x="218" y="118" width="120" height="317" as="geometry" />
        </mxCell>
        <mxCell id="8CNHfyw67QvqExkJ17C1-2" value="" style="rounded=0;whiteSpace=wrap;html=1;" vertex="1" parent="1">
          <mxGeometry x="422" y="118" width="338" height="317" as="geometry" />
        </mxCell>
        <mxCell id="8CNHfyw67QvqExkJ17C1-3" value="&lt;font style=&quot;font-size: 18px&quot; face=&quot;Helvetica&quot;&gt;栈&lt;/font&gt;" style="text;html=1;align=center;verticalAlign=middle;resizable=0;points=[];autosize=1;strokeColor=none;fillColor=none;" vertex="1" parent="1">
          <mxGeometry x="254" y="91" width="28" height="20" as="geometry" />
        </mxCell>
        <mxCell id="8CNHfyw67QvqExkJ17C1-4" value="堆" style="text;html=1;align=center;verticalAlign=middle;resizable=0;points=[];autosize=1;strokeColor=none;fillColor=none;fontSize=18;" vertex="1" parent="1">
          <mxGeometry x="570" y="88" width="28" height="26" as="geometry" />
        </mxCell>
      </root>
    </mxGraphModel>
  </diagram>
</mxfile>
